<?xml version="1.0" encoding="UTF-8"?>
<svg id="_图层_1" data-name="图层 1" xmlns="http://www.w3.org/2000/svg" viewBox="0 0 923.36 237.15">
  <rect x="331.86" y="0" width="45.89" height="233.45"/>
  <path d="M467.04,92.87c-21.84,0-41.4,9.72-54.63,25.06V0h-17.51V233.45h17.51v-21.35c13.23,15.34,32.79,25.06,54.63,25.06,39.84,0,72.14-32.3,72.14-72.14s-32.3-72.14-72.14-72.14Zm0,126.77c-30.17,0-54.63-24.46-54.63-54.63s24.46-54.63,54.63-54.63,54.63,24.46,54.63,54.63-24.46,54.63-54.63,54.63Z"/>
  <path d="M676.63,117.93c-13.23-15.34-32.79-25.06-54.63-25.06-39.84,0-72.14,32.3-72.14,72.14s32.3,72.14,72.14,72.14c21.84,0,41.4-9.72,54.63-25.06v20.86h17.51V97.07h-17.51v20.86Zm-54.63,101.72c-30.17,0-54.63-24.46-54.63-54.63s24.46-54.63,54.63-54.63,54.63,24.46,54.63,54.63-24.46,54.63-54.63,54.63Z"/>
  <path d="M851.21,92.87c-39.84,0-72.14,32.3-72.14,72.14s32.3,72.14,72.14,72.14,72.14-32.3,72.14-72.14-32.3-72.14-72.14-72.14Zm0,126.77c-30.17,0-54.63-24.46-54.63-54.63s24.46-54.63,54.63-54.63,54.63,24.46,54.63,54.63-24.46,54.63-54.63,54.63Z"/>
  <path d="M704.77,0h17.51V233.45h-17.51V0Zm83.64,98.77v-1.7h-18.97l-45.83,64.3v1.72l47.07,70.36h21.77v-1.7l-49.09-71.05,45.05-61.93Z"/>
  <polygon points="41.85 2.24 41.85 0 0 0 0 55.5 2.88 55.5 41.85 2.24"/>
  <polygon points="0 173.82 0 233.45 41.85 233.45 41.85 230.57 2.88 173.82 0 173.82"/>
  <polygon points="129.11 2.88 129.11 0 79.39 0 46.89 45.59 0 111.37 0 114.29 46.89 184.38 79.72 233.45 134.16 233.45 134.16 230.57 51.02 110.24 129.11 2.88"/>
  <polygon points="203.58 0 139.87 230.57 139.87 233.45 187.77 233.45 230.22 62.83 231.05 61.66 278.25 233.45 326.14 233.45 326.14 230.57 255.33 0 203.58 0"/>
</svg>